<?xml version="1.0" encoding="UTF-8" standalone="no"?>
<!-- Created with Inkscape (http://www.inkscape.org/) -->

<svg
   width="135.46666mm"
   height="135.46667mm"
   viewBox="0 0 135.46666 135.46667"
   version="1.1"
   id="svg5"
   xml:space="preserve"
   xmlns="http://www.w3.org/2000/svg"
   xmlns:svg="http://www.w3.org/2000/svg"><defs
     id="defs2" /><g
     id="layer1"
     transform="translate(-42.983758,-46.267237)"><g
       id="g5403"><rect
         style="fill:#198754;fill-opacity:1;stroke-width:0.264583"
         id="rect1714"
         width="135.46666"
         height="135.46666"
         x="42.983757"
         y="46.267239"
         ry="24.77536" /><path
         d="m 110.71703,135.80224 q -15.94244,0 -27.047691,-11.10522 -11.105154,-11.10523 -11.105154,-27.0477 0,-15.942474 11.105154,-27.047696 11.105251,-11.105223 27.047691,-11.105223 15.94255,0 27.0477,11.105223 11.10526,11.105222 11.10526,27.047696 0,15.94247 -11.10526,27.0477 -11.10515,11.10522 -27.0477,11.10522 z m 0,-8.17562 q 12.53603,0 21.25663,-8.72067 8.72071,-8.72067 8.72071,-21.25663 0,-12.535955 -8.72071,-21.256625 -8.7206,-8.72067 -21.25663,-8.72067 -12.535924,0 -21.25662,8.72067 -8.7206,8.72067 -8.7206,21.256625 0,12.53596 8.7206,21.25663 8.720696,8.72067 21.25662,8.72067 z M 99.27116,95.741677 q 1.63512,0 2.86154,-1.226348 1.22632,-1.226339 1.22632,-2.861464 0,-1.635125 -1.22632,-2.861474 -1.22642,-1.226338 -2.86154,-1.226338 -1.635125,0 -2.861445,1.226338 -1.226319,1.226349 -1.226319,2.861474 0,1.635125 1.226319,2.861464 1.22632,1.226348 2.861445,1.226348 z m 22.89174,0 q 1.63512,0 2.86155,-1.226348 1.22631,-1.226339 1.22631,-2.861464 0,-1.635125 -1.22631,-2.861474 -1.22643,-1.226338 -2.86155,-1.226338 -1.63513,0 -2.86144,1.226338 -1.22632,1.226349 -1.22632,2.861474 0,1.635125 1.22632,2.861464 1.22631,1.226348 2.86144,1.226348 z M 110.71703,83.47824 q 1.63512,0 2.86155,-1.226349 1.22631,-1.226337 1.22631,-2.861462 0,-1.635125 -1.22631,-2.861476 -1.22643,-1.226337 -2.86155,-1.226337 -1.63512,0 -2.86144,1.226337 -1.22633,1.226351 -1.22633,2.861476 0,1.635125 1.22633,2.861462 1.22632,1.226349 2.86144,1.226349 z m -4.08777,85.0265 v -6.5405 q 0,-4.90537 -3.13398,-8.03937 -3.13397,-3.13399 -8.039345,-3.13399 H 83.464981 v -8.17563 h 54.504199 v 8.17563 h -11.99095 q -4.90537,0 -8.03936,3.13399 -3.13398,3.134 -3.13398,8.03937 v 6.5405 z m 4.08777,-70.85542 z"
         id="path9"
         style="fill:#ffffff;fill-opacity:1;stroke-width:2.72521" /></g></g></svg>
