<?xml version="1.0" encoding="UTF-8" standalone="no"?>
<!-- Created with Inkscape (http://www.inkscape.org/) -->

<svg
   width="135.46666mm"
   height="135.46666mm"
   viewBox="0 0 135.46666 135.46666"
   version="1.1"
   id="svg5"
   xml:space="preserve"
   xmlns="http://www.w3.org/2000/svg"
   xmlns:svg="http://www.w3.org/2000/svg"><defs
     id="defs2" /><g
     id="layer1"
     transform="translate(-46.04342,-48.431403)"><g
       id="g5669"><g
         id="g5685"><rect
           style="fill:#ffffff;fill-opacity:1;stroke-width:0.264583"
           id="rect1714"
           width="135.46666"
           height="135.46666"
           x="46.043419"
           y="48.431404"
           ry="67.73333" /><path
           d="m 113.77669,138.94526 q -16.658221,0 -28.262075,-11.60382 -11.603754,-11.60383 -11.603754,-28.262087 0,-16.65826 11.603754,-28.262084 11.603854,-11.603825 28.262075,-11.603825 16.65834,0 28.26209,11.603825 11.60386,11.603824 11.60386,28.262084 0,16.658257 -11.60386,28.262087 -11.60375,11.60382 -28.26209,11.60382 z m 0,-8.54269 q 13.09888,0 22.21101,-9.11221 9.11226,-9.11221 9.11226,-22.211007 0,-13.098795 -9.11226,-22.211005 -9.11213,-9.112211 -22.21101,-9.112211 -13.09876,0 -22.210997,9.112211 -9.112137,9.11221 -9.112137,22.211005 0,13.098797 9.112137,22.211007 9.112237,9.11221 22.210997,9.11221 z M 101.81693,97.08606 q 1.70853,0 2.99001,-1.281408 1.28138,-1.2814 1.28138,-2.989938 0,-1.708539 -1.28138,-2.989949 -1.28148,-1.281398 -2.99001,-1.281398 -1.70854,0 -2.989922,1.281398 -1.281378,1.28141 -1.281378,2.989949 0,1.708538 1.281378,2.989938 1.281382,1.281408 2.989922,1.281408 z m 23.91953,0 q 1.70853,0 2.99003,-1.281408 1.28137,-1.2814 1.28137,-2.989938 0,-1.708539 -1.28137,-2.989949 -1.2815,-1.281398 -2.99003,-1.281398 -1.70854,0 -2.98991,1.281398 -1.28138,1.28141 -1.28138,2.989949 0,1.708538 1.28138,2.989938 1.28137,1.281408 2.98991,1.281408 z M 113.77669,84.272019 q 1.70854,0 2.99003,-1.281409 1.28137,-1.281397 1.28137,-2.989936 0,-1.708539 -1.28137,-2.989951 -1.28149,-1.281397 -2.99003,-1.281397 -1.70853,0 -2.98991,1.281397 -1.28139,1.281412 -1.28139,2.989951 0,1.708539 1.28139,2.989936 1.28138,1.281409 2.98991,1.281409 z m -4.2713,88.844021 v -6.83416 q 0,-5.12561 -3.27469,-8.40032 -3.27468,-3.2747 -8.400295,-3.2747 H 85.301081 v -8.5427 h 56.951329 v 8.5427 h -12.52932 q -5.12561,0 -8.40031,3.2747 -3.27469,3.27471 -3.27469,8.40032 v 6.83416 z m 4.2713,-74.036687 z"
           id="path9"
           style="fill:#158cba;fill-opacity:1;stroke-width:2.84757" /></g></g></g></svg>
